<svg width="160" height="42" viewBox="0 0 160 42" fill="none" xmlns="http://www.w3.org/2000/svg">
<path fill-rule="evenodd" clip-rule="evenodd" d="M76.2552 38.3122C76.0126 32.542 75.7698 26.7702 75.3634 20.9078C71.5843 21.3176 67.6405 21.8195 63.6976 22.1371C63.9402 27.5897 64.183 32.9518 64.2618 38.3122C60.0303 38.3487 55.6606 38.6669 51.3221 37.9127C51.2615 32.5761 51.2007 27.1458 51.1401 21.6249C48.0468 21.697 49.0017 24.3114 49.1382 25.8249C47.5952 29.2927 50.5979 36.0014 48.2282 38.4249C43.8238 38.5488 36.2814 39.1081 32.777 38.2098C32.8802 32.5079 32.8194 26.8043 32.595 21.0102C31.2424 20.0782 29.7253 19.0536 28.0452 17.9371C28.4515 15.7758 28.6943 13.5217 28.9369 11.2683C35.3667 11.4391 41.7984 11.6097 48.2282 11.7805C55.5678 7.854 62.9098 3.92649 70.2494 0C70.492 0.136551 70.7348 0.273205 70.8136 0.409756C79.7729 4.26792 88.571 8.1272 97.2026 11.8932C97.1238 12.1219 96.881 12.2586 96.6384 12.3951C95.7284 13.0097 94.8183 13.6245 93.9085 14.239C93.7871 14.1707 93.6659 14.1025 93.5445 14.0341C91.9925 13.6578 91.4369 12.896 89.3769 12.6102C89.6151 14.084 89.2631 15.8554 88.8127 17.4249C88.5701 21.9557 88.3273 26.3956 87.9209 30.742C87.4505 33.1728 88.951 36.4333 87.3567 38.4146C83.6566 38.3805 79.9553 38.3463 76.2552 38.3122ZM130.325 42C124.848 41.9317 119.205 41.8634 113.4 41.7951C108.903 41.7935 103.238 42.0162 99.0225 41.498C95.6695 41.2205 92.0132 41.5989 88.9947 41.2829C88.9341 41.1805 88.8733 40.9859 88.8127 40.8834C88.9341 39.2001 89.0553 37.4243 89.1767 35.5566C89.1161 34.761 89.0553 33.8731 88.9947 32.9854C88.9537 32.6024 89.5319 31.1184 89.5589 30.5268C89.7833 27.8295 89.8441 25.1315 89.7409 22.342C92.913 21.264 97.6488 20.687 100.278 19.1663C100.28 16.2092 101.047 14.8206 100.842 12.3951C101.206 12.3951 101.734 12.3951 101.934 12.3951C102.159 13.0097 102.22 13.6245 102.116 14.239C102.48 14.239 103.008 14.239 103.372 14.239C103.272 13.2648 102.872 12.6759 103.39 11.9956C104.375 12.2951 104.841 12.1365 105.21 12.2927C105.495 12.2927 105.617 12.2927 105.574 12.2927C105.685 13.7427 105.073 16.4761 106.102 17.4249C110.47 16.322 114.838 15.1267 119.206 13.8395C120.738 13.8042 134.781 18.2013 135.603 18.8488C135.646 18.859 135.524 19.0537 135.239 19.0639C134.25 19.8731 133.098 20.5903 131.781 21.3073C131.702 23.1851 131.46 25.0636 131.217 26.9415C129.847 31.8775 130.464 36.6506 130.325 42ZM44.4063 22.5366C43.1326 22.6731 41.8583 22.8098 40.4207 22.8541C40.4631 23.7657 40.3419 24.5855 40.2205 25.3127C40.3419 25.4732 40.4631 25.5414 40.4207 25.6098C41.7977 25.439 43.0112 25.2683 44.0606 25.0976C44.285 24.2439 44.3457 23.3901 44.4063 22.5366ZM159.972 26.542C160.038 27.6203 160.035 28.631 159.426 29.1951C158.553 29.2857 158.344 29.3381 157.97 29.7073C158.031 30.5951 158.092 31.483 158.152 32.3707C157.543 34.2334 157.414 36.3328 157.26 38.4249C151.48 38.4249 145.533 38.4249 139.589 38.4249C136.805 38.5171 133.239 38.6935 130.871 38.3122C130.871 38.2781 130.871 38.2439 130.871 38.2098C132.907 34.0362 129.394 29.5868 133.601 26.542C133.783 26.6683 134.129 26.7025 134.311 26.7366C134.511 27.6925 135.039 28.6489 135.239 29.5127C136.686 29.6869 136.977 29.8908 138.133 29.8098C138.298 28.8164 138.62 27.7831 137.951 27.0541C136.828 27.1487 136.682 27.0911 136.131 26.839C137.574 25.5135 142.752 23.0285 145.777 22.7415C150.376 25.1668 150.815 26.686 159.972 26.542ZM39.6745 23.1512C38.5827 23.1853 37.4904 23.2195 36.2349 23.2537C36.52 24.2779 36.6412 25.3025 36.7626 26.3268C36.8232 26.3268 36.884 26.3268 36.9446 26.3268C37.7938 26.1561 38.6433 25.9854 39.3287 25.7224C39.5531 24.9269 39.6139 24.039 39.6745 23.1512ZM115.038 23.8683C115.444 25.6096 115.687 27.3514 115.93 29.0927C117.325 29.0244 118.72 28.9561 120.116 28.7956C120.358 27.2148 120.601 25.5413 120.68 23.8683C118.963 23.8683 117.082 23.8683 115.038 23.8683ZM0 31.8688C1.33456 31.483 2.66929 31.0048 4.00385 30.5268C5.27762 30.8683 6.55194 31.2098 7.66191 31.5512C7.7651 31.1415 7.50722 30.322 7.50722 30.322C7.50722 30.322 8.12909 30.1854 8.37169 30.0249C8.43229 30.0249 8.49308 30.0249 8.55368 30.0249C8.55368 30.7316 8.55368 31.3464 8.55368 31.8688C9.11786 31.8688 10.0096 31.8688 10.5738 31.8688C10.5738 31.8585 10.5738 30.9159 10.5738 30.9057C10.7107 30.9254 10.0096 30.322 10.0096 30.322C10.0096 30.322 14.8281 27.5268 16.9436 26.839C19.7253 27.6785 20.7663 29.4539 23.1313 30.322C23.3557 30.322 23.4165 30.322 23.3133 30.322C23.5985 29.7756 23.7197 29.2292 23.6773 28.6829C23.3559 28.6488 22.8704 28.6146 22.3852 28.5805C22.3852 28.4439 22.3852 28.3073 22.3852 28.1707C24.8115 27.1123 27.2386 26.0535 29.5011 24.9951C29.9075 25.0292 30.1503 25.0634 30.3929 25.0976C30.6961 25.2102 30.9995 25.5073 31.139 25.7122C31.139 29.9801 31.139 34.2492 31.139 38.4249C21.2943 38.483 10.1905 38.5512 0.0181993 38.4249M43.6966 25.6098C42.7686 25.8249 41.6763 26.2244 40.4207 26.4395C40.4631 27.3511 40.3419 28.1708 40.2205 28.8981C40.4631 29.0244 40.7059 29.0586 40.7847 29.0927C41.5127 29.161 42.4044 29.2292 43.1324 29.2976C43.193 29.2634 43.2538 29.2292 43.3144 29.1951C43.3326 28.0002 43.6784 26.8048 43.6966 25.6098ZM36.2349 29.0927C37.4298 29.0927 38.4614 29.0927 39.3287 29.0927C39.3287 28.2733 39.3287 27.4536 39.3287 26.542C38.522 26.7468 37.5512 27.0439 36.5806 27.1566C36.52 27.8633 36.4592 28.4782 36.2349 29.0927ZM100.478 33.3951C102.341 33.3268 104.04 33.2586 105.574 33.098C105.574 31.6196 105.574 30.0486 105.574 28.478C104.04 28.6487 102.341 28.8196 100.478 28.8981C100.582 29.0005 100.521 29.1951 100.296 29.2976C99.5983 30.4775 100.581 32.1529 100.478 33.3951Z" fill="black"/>
</svg>
